<svg height="512pt" viewBox="0 0 512.00008 512" width="512pt" xmlns="http://www.w3.org/2000/svg" xmlns:xlink="http://www.w3.org/1999/xlink"><linearGradient id="a"><stop offset="0" stop-color="#662d91"/><stop offset=".437" stop-color="#3873b3"/><stop offset="1" stop-color="#00c9dd"/></linearGradient><linearGradient id="b" gradientTransform="matrix(.995665 0 0 -.995665 .000052 502.825631)" gradientUnits="userSpaceOnUse" x1="41.4214" x2="491.6366" xlink:href="#a" y1="463.5898" y2="13.3745"/><linearGradient id="c" gradientTransform="matrix(.995665 0 0 -.995665 .000052 502.825631)" gradientUnits="userSpaceOnUse" x1="41.4259" x2="491.6411" xlink:href="#a" y1="463.5943" y2="13.3791"/><linearGradient id="d" gradientTransform="matrix(.995665 0 0 -.995665 .000052 502.825631)" gradientUnits="userSpaceOnUse" x1="41.4254" x2="491.6407" xlink:href="#a" y1="463.5938" y2="13.3786"/><linearGradient id="e" gradientTransform="matrix(.995665 0 0 -.995665 .000052 502.825631)" gradientUnits="userSpaceOnUse" x1="41.4307" x2="491.6459" xlink:href="#a" y1="463.5905" y2="13.3753"/><path d="m322.371094 153.417969-168.957032 168.957031c-10 9.996094-10 26.207031 0 36.207031 10 9.996094 26.207032 9.996094 36.207032 0l168.957031-168.957031c9.996094-10 9.996094-26.207031 0-36.207031-10-10-26.210937-10-36.207031 0zm24.132812 24.132812-168.957031 168.957031c-3.332031 3.328126-8.734375 3.328126-12.066406 0-3.332031-3.335937-3.332031-8.734374 0-12.066406l168.957031-168.957031c3.332031-3.332031 8.734375-3.332031 12.066406 0 3.324219 3.332031 3.324219 8.726563 0 12.058594zm0 0" fill="url(#b)"/><path d="m196.269531 238.929688c23.5625 0 42.664063-19.101563 42.664063-42.667969 0-23.5625-19.101563-42.664063-42.664063-42.664063s-42.667969 19.101563-42.667969 42.664063c0 11.320312 4.496094 22.171875 12.5 30.175781 7.984376 8.023438 18.847657 12.523438 30.167969 12.492188zm-18.101562-60.773438c10-9.996094 26.210937-9.992188 36.207031.007812s9.992188 26.210938-.007812 36.207032c-10.132813 9.660156-26.066407 9.660156-36.199219 0-10-9.996094-10.003907-26.203125-.011719-36.203125.003906-.003907.007812-.007813.011719-.011719zm0 0" fill="url(#c)"/><path d="m315.734375 273.0625c-23.566406 0-42.667969 19.101562-42.667969 42.664062s19.101563 42.664063 42.664063 42.664063c23.566406 0 42.667969-19.101563 42.667969-42.664063 0-11.316406-4.496094-22.171874-12.5-30.171874-7.984376-8.027344-18.847657-12.527344-30.164063-12.492188zm18.097656 60.773438c-10.132812 9.65625-26.066406 9.65625-36.199219 0-9.996093-9.996094-10-26.207032-.003906-36.203126 9.996094-10 26.203125-10.003906 36.203125-.007812s10 26.203125.003907 36.203125c0 .003906-.003907.003906-.003907.007813zm0 0" fill="url(#d)"/><path d="m511.578125 176.882812c-.703125-2.160156-2.242187-3.949218-4.269531-4.972656l-75.269532-37.992187-14.710937-79.671875c-.824219-4.476563-5.019531-7.519532-9.53125-6.914063l-84.640625 11.394531-61.378906-56.472656c-3.265625-3.003906-8.289063-3.003906-11.554688 0l-61.378906 56.472656-84.640625-11.394531c-4.519531-.632812-8.730469 2.421875-9.53125 6.914063l-14.703125 79.671875-75.269531 37.992187c-4.210938 2.117188-5.90625 7.25-3.785157 11.457032.007813.019531.019532.042968.03125.0625l37.304688 72.566406-37.304688 72.53125c-2.152343 4.191406-.5 9.335937 3.691407 11.488281.019531.011719.039062.019531.0625.03125l75.269531 37.988281 14.703125 79.675782c.796875 4.496093 5.011719 7.550781 9.53125 6.910156l84.640625-11.390625 61.378906 56.472656c3.265625 3.003906 8.289063 3.003906 11.554688 0l61.378906-56.472656 84.640625 11.390625c4.511719.609375 8.707031-2.433594 9.53125-6.910156l14.703125-79.675782 75.269531-37.988281c4.210938-2.121094 5.90625-7.25 3.785157-11.457031-.007813-.023438-.019532-.042969-.03125-.0625l-37.304688-72.53125 37.304688-72.53125c1.042968-2.039063 1.230468-4.40625.523437-6.582032zm-55.046875 75.210938c-1.257812 2.449219-1.257812 5.351562 0 7.800781l35.378906 68.820313-71.382812 36.027344c-2.378906 1.199218-4.0625 3.445312-4.546875 6.066406l-13.996094 75.84375-80.550781-10.835938c-2.519532-.339844-5.054688.460938-6.921875 2.183594l-58.511719 53.859375-58.546875-53.859375c-1.574219-1.453125-3.636719-2.261719-5.777344-2.261719-.382812 0-.765625.027344-1.140625.078125l-80.554687 10.835938-13.996094-75.84375c-.484375-2.621094-2.164063-4.867188-4.546875-6.066406l-71.378906-36.027344 35.410156-68.820313c1.257812-2.449219 1.257812-5.351562 0-7.800781l-35.410156-68.820312 71.378906-36.027344c2.382812-1.199219 4.0625-3.441406 4.546875-6.066406l13.996094-75.839844 80.554687 10.835937c2.515625.34375 5.054688-.457031 6.917969-2.183593l58.546875-53.863282 58.546875 53.863282c1.867187 1.71875 4.402344 2.519531 6.921875 2.183593l80.550781-10.835937 13.996094 75.839844c.484375 2.625 2.167969 4.867187 4.546875 6.066406l71.382812 36.027344zm0 0" fill="url(#e)"/></svg>