<svg height="480pt" viewBox="0 -19 480 479" width="480pt" xmlns="http://www.w3.org/2000/svg" xmlns:xlink="http://www.w3.org/1999/xlink"><linearGradient id="a"><stop offset="0" stop-color="#662d91"/><stop offset=".437" stop-color="#3873b3"/><stop offset="1" stop-color="#00c9dd"/></linearGradient><linearGradient id="b" gradientUnits="userSpaceOnUse" x1="-109.336" x2="288" xlink:href="#a" y1="179.164" y2="576.5"/><linearGradient id="c" gradientUnits="userSpaceOnUse" x1="-9.336" x2="388" xlink:href="#a" y1="79.164" y2="476.5"/><linearGradient id="d" gradientUnits="userSpaceOnUse" x1="-59.336" x2="338" xlink:href="#a" y1="129.164" y2="526.5"/><linearGradient id="e" gradientUnits="userSpaceOnUse" x1="-75.336" x2="322" xlink:href="#a" y1="145.164" y2="542.5"/><linearGradient id="f" gradientUnits="userSpaceOnUse" x1="88.664" x2="486" xlink:href="#a" y1="-18.836" y2="378.5"/><linearGradient id="g" gradientUnits="userSpaceOnUse" x1="11.496" x2="408.832" xlink:href="#a" y1="58.34" y2="455.668"/><path d="m88 344.5c-17.671875 0-32 14.328125-32 32s14.328125 32 32 32 32-14.328125 32-32-14.328125-32-32-32zm0 48c-8.835938 0-16-7.164062-16-16s7.164062-16 16-16 16 7.164062 16 16-7.164062 16-16 16zm0 0" fill="url(#b)"/><path d="m272 312.5c-26.507812 0-48 21.492188-48 48s21.492188 48 48 48 48-21.492188 48-48c-.027344-26.5-21.5-47.972656-48-48zm0 80c-17.671875 0-32-14.328125-32-32s14.328125-32 32-32 32 14.328125 32 32-14.328125 32-32 32zm0 0" fill="url(#c)"/><path d="m32 232.5h40v16h-40zm0 0" fill="url(#d)"/><path d="m32 264.5h40v16h-40zm0 0" fill="url(#e)"/><path d="m376 352.5h48c4.417969 0 8-3.582031 8-8v-104c0-4.417969-3.582031-8-8-8h-48c-4.417969 0-8 3.582031-8 8v104c0 4.417969 3.582031 8 8 8zm12.503906-16 27.496094-59.574219v59.574219zm22.992188-88-27.496094 59.574219v-59.574219zm0 0" fill="url(#f)"/><path d="m480 440.5v-16h-160.207031c13.453125-10.023438 23.429687-24.011719 28.519531-40h131.6875v-16h-16v-160c0-4.417969-3.582031-8-8-8h-104v-192c0-4.417969-3.582031-8-8-8h-32c-4.417969 0-8 3.582031-8 8v278.03125l-96.902344-185.726562c-1.378906-2.644532-4.113281-4.304688-7.097656-4.304688h-136c-4.417969 0-8 3.582031-8 8v96h-24c-17.671875 0-32 14.328125-32 32v144c0 4.417969 3.582031 8 8 8h16.550781c1.964844 15.480469 9.527344 29.707031 21.257813 40h-45.808594v16zm-349.808594-16c11.730469-10.292969 19.292969-24.519531 21.257813-40h44.238281c5.089844 15.988281 15.066406 29.976562 28.519531 40zm-26.191406-128h88c1.085938.003906 2.15625-.21875 3.152344-.648438l44.847656-19.222656v10.597656c-31.855469 13.851563-51.097656 46.714844-47.59375 81.273438h-40.957031c-3.324219-25.96875-22.109375-47.308594-47.449219-53.894531zm133.046875-36-37.664063 16.136719-5.375-102.214844zm-60.640625-116 7.203125 136h-79.609375v-136zm95.59375 280c-35.347656 0-64-28.652344-64-64s28.652344-64 64-64 64 28.652344 64 64c-.039062 35.328125-28.671875 63.960938-64 64zm176-208v152h-96v-152zm-128-200h16v296.207031c-4.601562-6.144531-10.0625-11.605469-16.207031-16.207031h.207031zm-304 216c0-8.835938 7.164062-16 16-16h32c4.417969 0 8-3.582031 8-8v-96h123.152344l88.113281 168.886719c-9.058594-1.398438-18.292969-1.15625-27.265625.714843v-17.601562h-.078125c.027344-1.234375-.234375-2.460938-.761719-3.574219l-64-128c-.394531-.753906-.902344-1.441406-1.511718-2.035156-.191407-.175781-.390626-.347656-.601563-.503906-.429687-.359375-.894531-.671875-1.390625-.933594-.257812-.140625-.527344-.261719-.800781-.367187-.492188-.1875-1.003907-.324219-1.527344-.402344-.304687-.0625-.609375-.105469-.921875-.128906-.125 0-.246094-.054688-.375-.054688h-88.03125c-4.417969 0-8 3.582031-8 8v176c-32.222656.054688-59.390625 24.03125-63.449219 56h-8.550781zm24 144c0-26.507812 21.492188-48 48-48s48 21.492188 48 48-21.492188 48-48 48c-26.5-.027344-47.972656-21.5-48-48zm0 0" fill="url(#g)"/></svg>