<svg height="512pt" viewBox="0 0 512.00002 512" width="512pt" xmlns="http://www.w3.org/2000/svg" xmlns:xlink="http://www.w3.org/1999/xlink"><linearGradient id="a"><stop offset="0" stop-color="#662d91"/><stop offset=".437" stop-color="#3873b3"/><stop offset="1" stop-color="#00c9dd"/></linearGradient><linearGradient id="b" gradientTransform="matrix(1.099725 0 0 -1.099725 0 504.202961)" gradientUnits="userSpaceOnUse" x1="-94.41" x2="344.2354" xlink:href="#a" y1="327.8651" y2="-110.7803"/><linearGradient id="c" gradientTransform="matrix(1.099725 0 0 -1.099725 0 504.202961)" gradientUnits="userSpaceOnUse" x1="-148.7266" x2="289.9188" xlink:href="#a" y1="273.5485" y2="-165.0969"/><linearGradient id="d" gradientTransform="matrix(1.099725 0 0 -1.099725 0 504.202961)" gradientUnits="userSpaceOnUse" x1="-78.891" x2="359.7544" xlink:href="#a" y1="343.3841" y2="-95.2613"/><linearGradient id="e" gradientTransform="matrix(1.099725 0 0 -1.099725 0 504.202961)" gradientUnits="userSpaceOnUse" x1="-43.9732" x2="394.6722" xlink:href="#a" y1="378.3019" y2="-60.3435"/><linearGradient id="f" gradientTransform="matrix(1.099725 0 0 -1.099725 0 504.202961)" gradientUnits="userSpaceOnUse" x1="33.622" x2="472.2674" xlink:href="#a" y1="455.8971" y2="17.2517"/><linearGradient id="g" gradientTransform="matrix(1.099725 0 0 -1.099725 0 504.202961)" gradientUnits="userSpaceOnUse" x1="103.4576" x2="542.103" xlink:href="#a" y1="525.7327" y2="87.0873"/><linearGradient id="h" gradientTransform="matrix(1.099725 0 0 -1.099725 0 504.202961)" gradientUnits="userSpaceOnUse" x1="59.6465" x2="498.2919" xlink:href="#a" y1="481.9138" y2="43.2762"/><linearGradient id="i" gradientTransform="matrix(1.099725 0 0 -1.099725 0 504.202961)" gradientUnits="userSpaceOnUse" x1="41.3815" x2="480.0269" xlink:href="#a" y1="463.6566" y2="25.0112"/><linearGradient id="j" gradientTransform="matrix(1.099725 0 0 -1.099725 0 504.202961)" gradientUnits="userSpaceOnUse" x1="29.7422" x2="468.3876" xlink:href="#a" y1="452.0173" y2="13.3719"/><linearGradient id="k" gradientTransform="matrix(1.099725 0 0 -1.099725 0 504.202961)" gradientUnits="userSpaceOnUse" x1="18.1029" x2="456.7483" xlink:href="#a" y1="440.378" y2="1.7326"/><linearGradient id="l" gradientTransform="matrix(1.099725 0 0 -1.099725 0 504.202961)" gradientUnits="userSpaceOnUse" x1="-7.1155" x2="431.5299" xlink:href="#a" y1="415.1596" y2="-23.4858"/><path d="m0 494.933594h512v17.066406h-512zm0 0" fill="url(#b)"/><path d="m17.066406 358.398438c-4.710937 0-8.535156 3.824218-8.535156 8.535156v102.402344c0 4.710937 3.820312 8.53125 8.535156 8.53125h68.265625c4.714844 0 8.535157-3.820313 8.535157-8.53125v-102.402344c0-4.710938-3.820313-8.535156-8.535157-8.535156zm59.734375 102.402343h-51.199219v-85.332031h51.199219zm0 0" fill="url(#c)"/><path d="m119.464844 256c-4.710938 0-8.53125 3.820312-8.53125 8.535156v204.796875c0 4.714844 3.820312 8.535157 8.53125 8.535157h68.269531c4.710937 0 8.53125-3.820313 8.53125-8.535157v-204.796875c0-4.714844-3.820313-8.535156-8.53125-8.535156zm59.734375 204.800781h-51.199219v-187.734375h51.199219zm0 0" fill="url(#d)"/><path d="m221.867188 307.199219c-4.714844 0-8.535157 3.820312-8.535157 8.535156v153.601563c0 4.710937 3.820313 8.53125 8.535157 8.53125h68.265624c4.710938 0 8.53125-3.820313 8.53125-8.53125v-153.601563c0-4.714844-3.820312-8.535156-8.53125-8.535156zm59.734374 153.601562h-51.203124v-136.535156h51.203124zm0 0" fill="url(#e)"/><path d="m324.265625 170.667969c-4.710937 0-8.53125 3.820312-8.53125 8.53125v290.132812c0 4.714844 3.820313 8.535157 8.53125 8.535157h68.269531c4.710938 0 8.53125-3.820313 8.53125-8.535157v-290.132812c0-4.710938-3.820312-8.53125-8.53125-8.53125zm59.734375 290.132812h-51.199219v-273.066406h51.199219zm0 0" fill="url(#f)"/><path d="m418.132812 76.800781v392.535157c0 4.710937 3.820313 8.53125 8.535157 8.53125h68.265625c4.710937 0 8.535156-3.820313 8.535156-8.53125v-392.535157c0-4.710937-3.820312-8.535156-8.535156-8.535156h-68.265625c-4.714844 0-8.535157 3.820313-8.535157 8.535156zm17.066407 8.53125h51.199219v375.46875h-51.199219zm0 0" fill="url(#g)"/><path d="m14.566406 270.566406 139.035156-139.035156 79.296876 79.300781c3.332031 3.332031 8.734374 3.332031 12.066406 0l181.703125-181.699219v22.066407h17.066406v-42.664063c0-4.714844-3.820313-8.535156-8.535156-8.535156h-42.667969v17.066406h22.066406l-175.664062 175.667969-79.300782-79.300781c-3.332031-3.332032-8.734374-3.332032-12.066406 0l-145.066406 145.066406zm0 0" fill="url(#h)"/><path d="m0 0h119.464844v17.066406h-119.464844zm0 0" fill="url(#i)"/><path d="m0 25.601562h119.464844v17.066407h-119.464844zm0 0" fill="url(#j)"/><path d="m0 51.199219h119.464844v17.066406h-119.464844zm0 0" fill="url(#k)"/><path d="m0 76.800781h59.734375v17.066407h-59.734375zm0 0" fill="url(#l)"/></svg>