<svg height="511pt" viewBox="-55 1 511 511.99887" width="511pt" xmlns="http://www.w3.org/2000/svg" xmlns:xlink="http://www.w3.org/1999/xlink"><linearGradient id="a"><stop offset="0" stop-color="#662d91"/><stop offset=".437" stop-color="#3873b3"/><stop offset="1" stop-color="#00c9dd"/></linearGradient><linearGradient id="b" gradientTransform="matrix(1.134257 0 0 -1.134257 -54.967978 502.422791)" gradientUnits="userSpaceOnUse" x1="47.0205" x2="413.2311" xlink:href="#a" y1="403.4562" y2="37.2456"/><linearGradient id="c" gradientTransform="matrix(1.134257 0 0 -1.134257 -54.967978 502.422791)" gradientUnits="userSpaceOnUse" x1="45.1397" x2="411.3503" xlink:href="#a" y1="401.5754" y2="35.3648"/><linearGradient id="d" gradientTransform="matrix(1.134257 0 0 -1.134257 -54.967978 502.422791)" gradientUnits="userSpaceOnUse" x1="71.4717" x2="437.6823" xlink:href="#a" y1="427.9074" y2="61.6968"/><linearGradient id="e" gradientTransform="matrix(1.134257 0 0 -1.134257 -54.967978 502.422791)" gradientUnits="userSpaceOnUse" x1="107.2067" x2="473.4173" xlink:href="#a" y1="463.6425" y2="97.4319"/><linearGradient id="f" gradientTransform="matrix(1.134257 0 0 -1.134257 -54.967978 502.422791)" gradientUnits="userSpaceOnUse" x1="141.0615" x2="507.2721" xlink:href="#a" y1="497.4972" y2="131.2866"/><linearGradient id="g" gradientTransform="matrix(1.134257 0 0 -1.134257 -54.967978 502.422791)" gradientUnits="userSpaceOnUse" x1="177.6706" x2="543.8812" xlink:href="#a" y1="534.1064" y2="167.8958"/><path d="m9.03125 452.265625c-4.710938 0-8.53125 3.820313-8.53125 8.535156 0 4.710938 3.820312 8.53125 8.53125 8.53125h8.535156v34.132813c0 4.714844 3.820313 8.535156 8.53125 8.535156h366.933594c4.714844 0 8.535156-3.820312 8.535156-8.535156v-494.933594c0-4.710938-3.820312-8.53125-8.535156-8.53125h-366.933594c-4.710937 0-8.53125 3.820312-8.53125 8.53125v34.136719h-8.535156c-4.710938 0-8.53125 3.820312-8.53125 8.53125 0 4.710937 3.820312 8.53125 8.53125 8.53125h8.535156v17.070312h-8.535156c-4.710938 0-8.53125 3.820313-8.53125 8.53125 0 4.714844 3.820312 8.535157 8.53125 8.535157h8.535156v17.066406h-8.535156c-4.710938 0-8.53125 3.820312-8.53125 8.53125 0 4.714844 3.820312 8.535156 8.53125 8.535156h8.535156v17.066406h-8.535156c-4.710938 0-8.53125 3.820313-8.53125 8.535156 0 4.710938 3.820312 8.53125 8.53125 8.53125h8.535156v17.066407h-8.535156c-4.710938 0-8.53125 3.820312-8.53125 8.535156 0 4.710937 3.820312 8.53125 8.53125 8.53125h8.535156v17.066406h-8.535156c-4.710938 0-8.53125 3.820313-8.53125 8.535157 0 4.710937 3.820312 8.53125 8.53125 8.53125h8.535156v17.066406h-8.535156c-4.710938 0-8.53125 3.820312-8.53125 8.535156 0 4.710938 3.820312 8.53125 8.53125 8.53125h8.535156v17.066406h-8.535156c-4.710938 0-8.53125 3.820313-8.53125 8.535156 0 4.710938 3.820312 8.53125 8.53125 8.53125h8.535156v17.070313h-8.535156c-4.710938 0-8.53125 3.820313-8.53125 8.53125 0 4.714844 3.820312 8.53125 8.53125 8.53125h8.535156v17.070313h-8.535156c-4.710938 0-8.53125 3.820312-8.53125 8.53125 0 4.714843 3.820312 8.535156 8.53125 8.535156h8.535156v17.066406h-8.535156c-4.710938 0-8.53125 3.820312-8.53125 8.53125 0 4.714844 3.820312 8.535156 8.53125 8.535156h8.535156v17.066406h-8.535156c-4.710938 0-8.53125 3.820313-8.53125 8.53125 0 4.714844 3.820312 8.535157 8.53125 8.535157h8.535156v17.066406zm25.601562 17.066406h8.53125c4.714844 0 8.535157-3.820312 8.535157-8.53125 0-4.714843-3.820313-8.535156-8.535157-8.535156h-8.53125v-17.066406h8.53125c4.714844 0 8.535157-3.820313 8.535157-8.53125 0-4.714844-3.820313-8.535157-8.535157-8.535157h-8.53125v-17.066406h8.53125c4.714844 0 8.535157-3.820312 8.535157-8.53125 0-4.714844-3.820313-8.535156-8.535157-8.535156h-8.53125v-17.066406h8.53125c4.714844 0 8.535157-3.820313 8.535157-8.535156 0-4.710938-3.820313-8.53125-8.535157-8.53125h-8.53125v-17.066407h8.53125c4.714844 0 8.535157-3.820312 8.535157-8.535156 0-4.710937-3.820313-8.53125-8.535157-8.53125h-8.53125v-17.066406h8.53125c4.714844 0 8.535157-3.820313 8.535157-8.535157 0-4.710937-3.820313-8.53125-8.535157-8.53125h-8.53125v-17.066406h8.53125c4.714844 0 8.535157-3.820312 8.535157-8.535156 0-4.710938-3.820313-8.53125-8.535157-8.53125h-8.53125v-17.066406h8.53125c4.714844 0 8.535157-3.820313 8.535157-8.535156 0-4.710938-3.820313-8.53125-8.535157-8.53125h-8.53125v-17.070313h8.53125c4.714844 0 8.535157-3.820313 8.535157-8.53125 0-4.714844-3.820313-8.53125-8.535157-8.53125h-8.53125v-17.070313h8.53125c4.714844 0 8.535157-3.820312 8.535157-8.53125 0-4.714843-3.820313-8.535156-8.535157-8.535156h-8.53125v-17.066406h8.53125c4.714844 0 8.535157-3.820312 8.535157-8.53125 0-4.714844-3.820313-8.535156-8.535157-8.535156h-8.53125v-17.066406h8.53125c4.714844 0 8.535157-3.820313 8.535157-8.535157 0-4.710937-3.820313-8.53125-8.535157-8.53125h-8.53125v-17.066406h8.53125c4.714844 0 8.535157-3.820313 8.535157-8.535156 0-4.710938-3.820313-8.53125-8.535157-8.53125h-8.53125v-25.601563h349.863282v477.867188h-349.863282zm0 0" fill="url(#b)"/><path d="m205.296875 170.667969c-37.636719 0-68.265625 38.277343-68.265625 85.332031s30.628906 85.335938 68.265625 85.335938c37.640625 0 68.269531-38.28125 68.269531-85.335938s-30.628906-85.332031-68.269531-85.332031zm0 153.597656c-28.234375 0-51.199219-30.625-51.199219-68.265625s22.964844-68.265625 51.199219-68.265625c28.238281 0 51.203125 30.625 51.203125 68.265625s-22.964844 68.265625-51.203125 68.265625zm0 0" fill="url(#c)"/><path d="m122.664062 43.101562c-3.484374-1.160156-7.324218.039063-9.523437 2.980469l-18.773437 25.027344-18.773438-25.027344c-2.828125-3.773437-8.175781-4.535156-11.949219-1.707031-2.148437 1.609375-3.410156 4.140625-3.410156 6.824219v68.265625c0 4.714844 3.820313 8.535156 8.53125 8.535156 4.714844 0 8.53125-3.820312 8.53125-8.535156v-42.664063l10.242187 13.652344c3.101563 3.769531 8.671876 4.3125 12.445313 1.210937.441406-.363281.84375-.769531 1.207031-1.210937l10.242188-13.652344v42.664063c0 4.714844 3.820312 8.535156 8.53125 8.535156 4.714844 0 8.53125-3.820312 8.53125-8.535156v-68.265625c.003906-3.675781-2.347656-6.9375-5.832032-8.097657zm0 0" fill="url(#d)"/><path d="m154.097656 128h42.667969c4.710937 0 8.53125-3.820312 8.53125-8.535156 0-4.710938-3.820313-8.53125-8.53125-8.53125h-34.132813v-17.066406h25.597657c4.714843 0 8.535156-3.820313 8.535156-8.535157 0-4.710937-3.820313-8.53125-8.535156-8.53125h-25.597657v-17.066406h34.132813c4.710937 0 8.53125-3.820313 8.53125-8.535156 0-4.710938-3.820313-8.53125-8.53125-8.53125h-42.667969c-4.710937 0-8.53125 3.820312-8.53125 8.53125v68.265625c0 4.714844 3.820313 8.535156 8.53125 8.535156zm0 0" fill="url(#e)"/><path d="m273.566406 42.667969c-4.714844 0-8.535156 3.820312-8.535156 8.53125v38.511719l-26.894531-43.035157c-2.5-3.996093-7.765625-5.210937-11.761719-2.710937-2.492188 1.558594-4.007812 4.292968-4.007812 7.234375v68.265625c0 4.714844 3.820312 8.535156 8.53125 8.535156 4.714843 0 8.535156-3.820312 8.535156-8.535156v-38.507813l26.894531 43.03125c2.496094 3.996094 7.761719 5.210938 11.757813 2.714844 2.496093-1.5625 4.011718-4.296875 4.011718-7.238281v-68.265625c0-4.710938-3.820312-8.53125-8.53125-8.53125zm0 0" fill="url(#f)"/><path d="m350.367188 42.667969c-4.714844 0-8.535157 3.820312-8.535157 8.53125v46.933593c0 7.066407-5.730469 12.800782-12.800781 12.800782s-12.800781-5.730469-12.800781-12.800782v-46.933593c0-4.710938-3.820313-8.53125-8.53125-8.53125-4.710938 0-8.53125 3.820312-8.53125 8.53125v46.933593c0 16.496094 13.371093 29.867188 29.863281 29.867188 16.496094 0 29.867188-13.371094 29.867188-29.867188v-46.933593c0-4.710938-3.820313-8.53125-8.53125-8.53125zm0 0" fill="url(#g)"/></svg>