<svg height="511pt" viewBox="0 0 511.99812 511" width="511pt" xmlns="http://www.w3.org/2000/svg" xmlns:xlink="http://www.w3.org/1999/xlink"><linearGradient id="a" gradientTransform="matrix(1.077675 0 0 -1.077675 0 502.907971)" gradientUnits="userSpaceOnUse" x1="36.6599" x2="435.5529" y1="425.6644" y2="26.7792"><stop offset="0" stop-color="#662d91"/><stop offset=".437" stop-color="#3873b3"/><stop offset="1" stop-color="#00c9dd"/></linearGradient><path d="m8.53125 478.300781c-4.710938 0-8.53125 3.820313-8.53125 8.53125 0 4.710938 3.820312 8.53125 8.53125 8.53125h8.53125v8.535157c0 4.710937 3.820312 8.53125 8.535156 8.53125 4.710938 0 8.53125-3.820313 8.53125-8.53125v-8.535157h24.605469c.324219.089844.65625.152344.988281.199219h59.726563v8.335938c0 4.710937 3.820312 8.53125 8.53125 8.53125 4.714843 0 8.53125-3.820313 8.53125-8.53125v-8.535157h85.324219v8.535157c0 4.710937 3.820312 8.53125 8.53125 8.53125 4.710937 0 8.53125-3.820313 8.53125-8.53125v-8.535157h7.746093c.261719.070313.523438.125.785157.164063h59.726562c.265625-.042969.527344-.09375.785156-.164063h16.277344v8.535157c0 4.710937 3.820312 8.53125 8.535156 8.53125 4.710938 0 8.53125-3.820313 8.53125-8.53125v-8.398438h59.726563c.230469 0 .425781-.117188.65625-.136719h24.9375v8.53125c0 4.714844 3.820312 8.535157 8.535156 8.535157 4.710937 0 8.53125-3.820313 8.53125-8.535157v-8.394531h51.191406c.230469 0 .425781-.121094.65625-.136719h7.878907c4.710937.039063 8.5625-3.75 8.597656-8.464843.039062-4.710938-3.75-8.5625-8.460938-8.601563v-452.203125c0-4.785156-3.882812-8.667969-8.671875-8.667969h-59.722656c-4.789063 0-8.671875 3.882813-8.671875 8.667969v452.207031h-16.789062v-375.417969c0-4.785156-3.882813-8.667968-8.667969-8.667968h-59.726563c-4.789062 0-8.667968 3.882812-8.667968 8.667968v375.417969h-16.765626v-230.367187c-.003906-4.800782-3.894531-8.691406-8.695312-8.695313h-59.726562c-4.800782 0-8.695313 3.890625-8.695313 8.695313v230.367187h-16.902344v-290.09375c0-4.710937-3.820312-8.53125-8.53125-8.53125h-59.722656c-4.710937 0-8.53125 3.820313-8.53125 8.53125v290.09375h-16.867187v-179.175781c0-4.820312-3.910157-8.726562-8.730469-8.726562h-59.722657c-4.820312 0-8.730468 3.90625-8.730468 8.726562v179.175781h-16.867188v-469.269531c0-4.714844-3.820312-8.53125-8.53125-8.53125-4.710937 0-8.53125 3.820312-8.53125 8.53125v110.917969h-8.535156c-4.710938 0-8.53125 3.820312-8.53125 8.53125 0 4.714843 3.820312 8.53125 8.53125 8.53125h8.53125v110.921875h-8.53125c-4.710938 0-8.53125 3.820312-8.53125 8.53125 0 4.710937 3.820312 8.53125 8.53125 8.53125h8.53125v110.917968h-8.53125c-4.710938 0-8.53125 3.820313-8.53125 8.53125 0 4.710938 3.820312 8.53125 8.53125 8.53125h8.53125v85.324219zm247.597656-221.675781h42.335938v221.515625h-42.335938zm187.707032-221.835938h42.386718v443.375h-42.414062zm-93.855469 76.789063h42.390625v366.585937h-42.414063zm-187.867188 85.160156h42.660157v281.5625h-42.660157zm-93.660156 111.117188h42.269531v170.25h-42.269531zm0 0" fill="url(#a)"/></svg>